<?xml version="1.0" encoding="UTF-8" standalone="no"?>
<svg
   xmlns:dc="http://purl.org/dc/elements/1.1/"
   xmlns:cc="http://creativecommons.org/ns#"
   xmlns:rdf="http://www.w3.org/1999/02/22-rdf-syntax-ns#"
   xmlns:svg="http://www.w3.org/2000/svg"
   xmlns="http://www.w3.org/2000/svg"
   xmlns:sodipodi="http://sodipodi.sourceforge.net/DTD/sodipodi-0.dtd"
   xmlns:inkscape="http://www.inkscape.org/namespaces/inkscape"
   width="105.76114mm"
   height="170.3997mm"
   viewBox="0 0 105.76114 170.3997"
   version="1.1"
   id="svg8"
   inkscape:version="1.0.1 (c497b03c, 2020-09-10)"
   sodipodi:docname="310-nurse-persona.svg"
   inkscape:export-filename="/Users/eric/workspace/masteringid/horizon/source/310-nurse-persona.png"
   inkscape:export-xdpi="72"
   inkscape:export-ydpi="72">
  <defs
     id="defs2" />
  <sodipodi:namedview
     id="base"
     pagecolor="#ffffff"
     bordercolor="#666666"
     borderopacity="1.0"
     inkscape:pageopacity="0.0"
     inkscape:pageshadow="2"
     inkscape:zoom="0.98994949"
     inkscape:cx="41.374413"
     inkscape:cy="320.06521"
     inkscape:document-units="mm"
     inkscape:current-layer="layer4"
     inkscape:document-rotation="0"
     showgrid="false"
     inkscape:window-width="1252"
     inkscape:window-height="855"
     inkscape:window-x="37"
     inkscape:window-y="23"
     inkscape:window-maximized="0" />
  <metadata
     id="metadata5">
    <rdf:RDF>
      <cc:Work
         rdf:about="">
        <dc:format>image/svg+xml</dc:format>
        <dc:type
           rdf:resource="http://purl.org/dc/dcmitype/StillImage" />
        <dc:title />
      </cc:Work>
    </rdf:RDF>
  </metadata>
  <g
     inkscape:groupmode="layer"
     id="layer3"
     inkscape:label="Bottom"
     transform="translate(-51.818841,-61.391656)">
    <g
       id="Bottom/Standing/Baggy-Pants"
       stroke="none"
       stroke-width="1"
       fill="none"
       fill-rule="evenodd"
       transform="matrix(-0.33288591,0,0,0.40786628,150.06059,134.31132)">
      <polygon
         id="Leg"
         fill="#997659"
         points="229,229.25029 178.67369,5.090379e-13 134,0 183.08164,124.22691 216.0009,229.25029 " />
      <path
         d="m 124.11663,0 c -0.52265,43.654189 -8.1448,102.42747 -9.36256,105.14865 -0.81184,1.81412 -28.837913,24.88381 -84.078215,69.20909 l 8.953216,9.581 C 104.80751,145.93538 138.9048,124.39934 141.92094,119.33063 146.44514,111.72756 161.1744,41.763137 173,0 Z"
         id="path865"
         fill="#b28b67" />
      <g
         id="Accessories/Shoe/Flat-Sneaker"
         transform="rotate(50,-140.21083,127.01732)"
         fill="#e4e4e4">
        <path
           d="M 2.6781318,25.401924 C 1.5593773,28.388411 1,30.622993 1,32.105671 1,33.908957 1.3004142,36.5404 1.9012426,40 c 2.0919386,0 20.8925424,0 56.4018124,0 1.465683,-4.845493 0.619606,-7.461418 -2.538232,-7.847777 -3.157838,-0.386358 -5.781107,-0.735209 -7.869809,-1.046552 L 21.679993,19.418883 c -0.50443,-0.224877 -1.095649,0.0017 -1.320526,0.506174 -0.0038,0.0086 -0.0076,0.01731 -0.01117,0.02605 l -1.685082,4.08759 c -2.923332,1.363957 -5.298842,2.045936 -7.126532,2.045936 -1.484954,0 -3.5356885,-0.599726 -6.1522031,-1.799176 l 5.5e-6,-1.2e-5 c -1.0041007,-0.460295 -2.1912281,-0.01945 -2.6515233,0.984647 -0.019839,0.04328 -0.038127,0.08725 -0.054828,0.131834 z"
           id="shoe" />
      </g>
      <g
         id="g871"
         transform="translate(208,199)"
         fill="#e4e4e4">
        <path
           d="M 2.6781318,25.401924 C 1.5593773,28.388411 1,30.622993 1,32.105671 1,33.908957 1.3004142,36.5404 1.9012426,40 c 2.0919386,0 20.8925424,0 56.4018124,0 1.465683,-4.845493 0.619606,-7.461418 -2.538232,-7.847777 -3.157838,-0.386358 -5.781107,-0.735209 -7.869809,-1.046552 L 21.679993,19.418883 c -0.50443,-0.224877 -1.095649,0.0017 -1.320526,0.506174 -0.0038,0.0086 -0.0076,0.01731 -0.01117,0.02605 l -1.685082,4.08759 c -2.923332,1.363957 -5.298842,2.045936 -7.126532,2.045936 -1.484954,0 -3.5356885,-0.599726 -6.1522031,-1.799176 l 5.5e-6,-1.2e-5 c -1.0041007,-0.460295 -2.1912281,-0.01945 -2.6515233,0.984647 -0.019839,0.04328 -0.038127,0.08725 -0.054828,0.131834 z"
           id="path869" />
      </g>
      <polygon
         id="Pant"
         fill="#69a1ac"
         points="167,218.43289 228.80446,211.72533 183,2.8421709e-14 127.64407,2.8421709e-14 " />
      <path
         d="M 43.459958,158.90048 84,206.88596 c 42.69995,-46.636 67.59414,-77.066 74.68255,-91.28999 C 165.77097,101.37197 172.14309,62.839981 177.79892,0 h -62.32077 c -3.08951,55.283874 -5.17205,84.212126 -6.24762,86.784755 -1.07558,2.572629 -22.999105,26.611205 -65.770572,72.115725 z"
         id="path874"
         fill="#89c5cc" />
    </g>
  </g>
  <g
     inkscape:groupmode="layer"
     id="layer4"
     inkscape:label="Head"
     transform="translate(-51.818841,-61.391656)">
    <g
       id="Head/Front/Short-1"
       stroke="none"
       stroke-width="1"
       fill="none"
       fill-rule="evenodd"
       transform="matrix(-0.44630854,0.07592069,0.0650679,0.459174,128.84157,43.245477)">
      <g
         id="Head"
         transform="translate(54,31)"
         fill="#b28b67">
        <path
           d="M 8.2622739,34.490127 C 3.6543643,29.081376 0.53563479,22.452877 1.0567763,15.025454 2.5583302,-6.3750206 32.348531,-1.6671889 38.143341,9.1339329 43.938152,19.935055 43.249578,47.332996 35.760301,49.263458 32.773588,50.033323 26.411001,48.147461 19.935372,44.244306 L 24,73 H 0 Z"
           id="path925" />
      </g>
      <path
         d="M 81.55869,41.700409 C 78.30182,43.522221 75.984009,46.93596 73.193927,51.41377 72.514391,51.14668 71.774325,51 71,51 c -3.313709,0 -6,2.686292 -6,6 0,1.682218 0.692292,3.202743 1.807515,4.292214 -1.388319,1.959602 -2.944226,4.006669 -4.727129,6.118976 C 55.427038,63.419452 50.478439,51.785405 56.83111,40.554248 62.296895,18.057426 93.268353,32.020959 99.227005,28.226777 100.52945,36.390485 96.328447,42.973059 81.55869,41.700409 Z"
         id="Hair"
         fill="#191847" />
    </g>
  </g>
  <g
     inkscape:label="Body"
     inkscape:groupmode="layer"
     id="layer1"
     transform="translate(-51.818841,-61.391656)">
    <path
       d="m 74.942814,123.27082 -13.432299,9.4882 c -3.643111,0.94563 -6.686817,2.12215 -9.131112,3.52956 -0.577386,0.50609 -1.275208,1.53103 1.119347,1.35389 2.394554,-0.17713 4.921548,-0.25986 5.251947,0.5258 0.330404,0.78566 -1.11865,1.72522 -0.450763,2.78528 0.445255,0.70671 2.548832,-1.06533 6.310723,-5.31612 l 13.301497,-5.30585 z m 60.785636,-3.95202 -7.41605,1.29168 c 8.60725,16.43 13.21731,25.11718 13.83016,26.06156 1.37892,2.12483 -0.0131,5.95323 -0.53827,7.97278 3.05143,0.73768 1.92364,-3.71973 5.78412,-2.7282 3.52366,0.90503 6.48493,3.12553 9.83802,0.25419 0.41224,-0.35301 0.72965,-1.47275 -0.64316,-2.07283 -3.42018,-1.49504 -8.4629,-4.27161 -9.26954,-5.33026 -1.1,-1.44366 -4.96176,-9.92663 -11.58528,-25.44892 z"
       id="Skin"
       fill="#b28b67"
       style="fill-rule:evenodd;stroke:none;stroke-width:0.413006" />
    <path
       d="m 71.813678,124.3023 c -1.728228,-0.11935 -3.60811,0.15605 -5.623603,0.8093 -0.991765,0.32144 -1.524858,1.35541 -1.190692,2.30942 0.194076,0.55409 0.638014,0.95934 1.170408,1.13876 -0.385654,0.27065 -0.774723,0.53979 -1.16725,0.80742 l 3.388651,6.65447 c 14.259608,-6.83924 27.662278,-11.99566 33.769578,-23.28669 2.04977,-3.78957 1.35598,-16.66187 1.55163,-21.34476 L 99.208744,89.613532 C 92.930823,102.0965 84.434583,114.07239 71.813678,124.3023 Z"
       id="Back-Arm"
       fill="#69a1ac"
       style="fill:#dfd7d3;fill-opacity:1;fill-rule:evenodd;stroke:none;stroke-width:0.413006" />
    <path
       d="m 119.53268,134.92803 c -13.23861,1.39898 -23.658854,1.39898 -31.26072,0 -0.941823,-0.17332 -0.900463,-4.07879 -0.463692,-5.14541 6.801615,-16.61004 11.275772,-28.76937 11.275772,-40.306329 1.24801,0.627086 3.43215,0.721063 6.55241,0.28193 8.38566,11.889209 12.24025,25.530719 13.89623,45.169809 z"
       id="Shirt"
       fill="#191847"
       style="fill:#704b68;fill-opacity:1;fill-rule:evenodd;stroke:none;stroke-width:0.413006" />
    <path
       d="m 121.99249,136.89184 c 0.4496,-0.40692 0.68397,-1.01692 0.56877,-1.6454 l -0.21937,-1.19675 c -0.14866,-0.81101 -0.83338,-1.40157 -1.64183,-1.49396 -0.14133,-0.60771 -0.26318,-1.21135 -0.36381,-1.81057 -0.85011,-5.06181 0.60234,-10.02507 0.53413,-14.89902 6.7713,5.55733 12.84569,15.1533 18.22316,28.78789 l 7.95319,-2.2512 c -0.30346,-1.08447 -0.61779,-2.15563 -0.94299,-3.21346 0.91796,-0.50164 1.99059,-2.80081 1.21862,-3.18556 -0.79728,-0.39735 -1.6419,-0.67702 -2.53138,-0.84163 -7.29232,-21.12817 -19.21749,-36.580025 -35.7755,-46.355576 h -2.27461 -2.51444 c 1.41002,17.936806 -18.065606,57.096606 -11.303174,90.540496 12.499334,2.68508 30.343754,-5.66909 47.713664,1.00534 -0.64633,-13.46821 -13.59318,-29.29029 -18.64443,-43.44061 z"
       id="Coat-Front"
       fill="#89c5cc"
       style="fill:#f6eae5;fill-opacity:1;fill-rule:evenodd;stroke:none;stroke-width:0.413006" />
    <path
       id="Shade-Lapel"
       style="fill:#000000;fill-opacity:0.133333;fill-rule:evenodd;stroke:none;stroke-width:0.413006"
       d="m 99.462207,119.977 11.697533,-15.72352 -3.88343,-3.81745 3.88343,-4.257522 -3.88343,-6.986834 2.17251,6.426617 -4.37496,4.817739 3.95386,3.78597 z" />
    <path
       d="m 102.26767,126.05305 c 0.93026,0 1.68439,-0.72542 1.68439,-1.62028 0,-0.89486 -0.75413,-1.62028 -1.68439,-1.62028 -0.93027,0 -1.6844,0.72542 -1.6844,1.62028 0,0.89486 0.75413,1.62028 1.6844,1.62028 z m -2.10549,9.31661 c 0.93026,0 1.68439,-0.72542 1.68439,-1.62028 0,-0.89486 -0.75413,-1.62028 -1.68439,-1.62028 -0.930267,0 -1.684395,0.72542 -1.684395,1.62028 0,0.89486 0.754128,1.62028 1.684395,1.62028 z m -0.421101,9.31661 c 0.930261,0 1.684391,-0.72542 1.684391,-1.62028 0,-0.89485 -0.75413,-1.62028 -1.684391,-1.62028 -0.930264,0 -1.684391,0.72543 -1.684391,1.62028 0,0.89486 0.754127,1.62028 1.684391,1.62028 z"
       id="Buttons"
       fill-opacity="0.4"
       fill="#000000"
       style="fill:#000000;fill-opacity:0.137255;fill-rule:evenodd;stroke:none;stroke-width:0.413006" />
  </g>
</svg>
