<?xml version="1.0" encoding="UTF-8" standalone="no"?>
<svg
   xmlns:dc="http://purl.org/dc/elements/1.1/"
   xmlns:cc="http://creativecommons.org/ns#"
   xmlns:rdf="http://www.w3.org/1999/02/22-rdf-syntax-ns#"
   xmlns:svg="http://www.w3.org/2000/svg"
   xmlns="http://www.w3.org/2000/svg"
   xmlns:sodipodi="http://sodipodi.sourceforge.net/DTD/sodipodi-0.dtd"
   xmlns:inkscape="http://www.inkscape.org/namespaces/inkscape"
   width="41.969418mm"
   height="102.3311mm"
   viewBox="0 0 41.969418 102.3311"
   version="1.1"
   id="svg8"
   inkscape:version="1.0.1 (c497b03c, 2020-09-10)"
   sodipodi:docname="311-chief-nurse-persona.svg">
  <defs
     id="defs2" />
  <sodipodi:namedview
     id="base"
     pagecolor="#ffffff"
     bordercolor="#666666"
     borderopacity="1.0"
     inkscape:pageopacity="0.0"
     inkscape:pageshadow="2"
     inkscape:zoom="0.98994949"
     inkscape:cx="-54.346207"
     inkscape:cy="166.12198"
     inkscape:document-units="mm"
     inkscape:current-layer="layer2"
     inkscape:document-rotation="0"
     showgrid="false"
     inkscape:window-width="1252"
     inkscape:window-height="855"
     inkscape:window-x="0"
     inkscape:window-y="23"
     inkscape:window-maximized="0" />
  <metadata
     id="metadata5">
    <rdf:RDF>
      <cc:Work
         rdf:about="">
        <dc:format>image/svg+xml</dc:format>
        <dc:type
           rdf:resource="http://purl.org/dc/dcmitype/StillImage" />
        <dc:title />
      </cc:Work>
    </rdf:RDF>
  </metadata>
  <g
     inkscape:groupmode="layer"
     id="layer4"
     inkscape:label="Back Body"
     transform="translate(-101.40664,-72.937638)">
    <path
       style="fill:#b28b67;fill-opacity:1;fill-rule:evenodd;stroke:none;stroke-width:0.264583"
       d="m 106.10431,122.84938 c 2.58051,-0.34531 4.3003,-0.58471 5.15938,-0.7182 -2.96825,5.16083 -4.37915,8.04009 -4.23272,8.63777 0.27537,1.12406 1.51634,1.60575 1.32117,1.92737 -1.00069,0.75963 -4.18663,0.63606 -5.28753,-1.27795 -0.52569,-0.91399 0.98515,-3.10999 1.49105,-3.97557 0.19899,-0.34046 0.7152,-1.87159 1.54865,-4.59342 z"
       id="Skin-4" />
    <path
       style="fill:#b28b67;fill-opacity:1;fill-rule:evenodd;stroke:none;stroke-width:0.264583"
       d="m 134.34181,115.55075 -5.5291,0.0217 c 3.41396,11.02087 5.257,16.86847 5.5291,17.54281 0.61223,1.51726 -0.68333,3.82802 -1.23737,5.06981 1.80448,0.80745 1.61221,-2.18286 3.8885,-1.12385 2.07769,0.96662 3.65819,2.71807 6.05866,1.2369 0.29513,-0.1821 0.61853,-0.86774 -0.16286,-1.40354 -1.94674,-1.33485 -4.75211,-3.67109 -5.13116,-4.44008 -0.5169,-1.04865 -1.65549,-6.68325 -3.41577,-16.90379 z"
       id="path935" />
    <path
       d="m 116.40444,91.831468 -2.29731,0.332655 c -0.71038,10.575207 -4.49351,21.201697 -11.3485,31.879507 l 9.83523,6.28262 c 5.80214,-13.91975 7.91124,-27.02347 3.81058,-38.494782 z"
       id="Coat-Back"
       fill="#191847"
       style="fill:#5c797f;fill-opacity:1;fill-rule:evenodd;stroke:none;stroke-width:0.264583" />
  </g>
  <g
     inkscape:groupmode="layer"
     id="layer2"
     inkscape:label="Bottom"
     transform="translate(-101.40664,-72.937638)">
    <polygon
       id="Leg"
       fill="#997659"
       points="128,9.9475983e-14 164.63084,126.22691 181.86015,221 199.1532,221 181.89097,9.9475983e-14 "
       style="fill-rule:evenodd;stroke:none;stroke-width:1"
       transform="matrix(-0.18658785,0,0,0.2343897,145.81476,119.2496)" />
    <path
       d="m 125.00317,119.2496 c -0.47691,15.36992 -0.28882,23.7531 -0.18208,25.14952 0.10674,1.39643 0.7127,10.74874 4.84194,27.11938 h -3.35602 c -5.4685,-15.70483 -7.3775,-25.05715 -8.00469,-27.11938 -0.62719,-2.06223 -2.47958,-10.44541 -5.18398,-25.14952 z"
       id="path64"
       fill="#b28b67"
       style="fill-rule:evenodd;stroke:none;stroke-width:0.209127" />
    <path
       d="m 122.07824,119.2496 c -1.77786,10.18072 -4.85278,26.43174 -9.22479,48.75306 h -4.71937 c -0.34858,-22.9107 1.13426,-37.98977 3.70217,-48.75306 z"
       id="Pant"
       fill="#69a1ac"
       style="fill-rule:evenodd;stroke:none;stroke-width:0.209127" />
    <path
       d="m 125.02702,119.2496 c -0.46707,15.36992 0.74338,30.51221 4.49293,48.99236 h -5.03531 c -5.47855,-15.47045 -9.4052,-30.53801 -12.08881,-48.99236 z"
       id="path67"
       fill="#89c5cc"
       style="fill-rule:evenodd;stroke:none;stroke-width:0.209127" />
    <g
       id="Accessories/Shoe/Flat-Simple"
       transform="matrix(-0.18658785,0,0,0.2343897,130.14138,165.89315)"
       fill="#191847"
       style="fill:#ceecec;fill-opacity:1;fill-rule:evenodd;stroke:none;stroke-width:1">
      <path
         d="M 0,37 0.99242267,21 C 6.8029179,22.699425 14.080684,22.032758 22.825721,19 32.228754,25.660617 44.065943,30.208671 58.33729,32.644163 l -4e-6,2.3e-5 c 1.088815,0.185813 1.820843,1.219103 1.63503,2.307918 -0.01203,0.07051 -0.02784,0.140323 -0.04735,0.209139 L 58.552937,40 H 22.825721 1.9848453 Z"
         id="Shoe"
         style="fill:#ceecec;fill-opacity:1" />
    </g>
    <g
       id="g73"
       transform="matrix(-0.18658785,0,0,0.2343897,112.60212,165.89315)"
       fill="#191847"
       style="fill:#adcdcd;fill-opacity:1;fill-rule:evenodd;stroke:none;stroke-width:1">
      <path
         d="M 0,37 0.99242267,21 C 6.8029179,22.699425 14.080684,22.032758 22.825721,19 32.228754,25.660617 44.065943,30.208671 58.33729,32.644163 l -4e-6,2.3e-5 c 1.088815,0.185813 1.820843,1.219103 1.63503,2.307918 -0.01203,0.07051 -0.02784,0.140323 -0.04735,0.209139 L 58.552937,40 H 22.825721 1.9848453 Z"
         id="path71"
         style="fill:#adcdcd;fill-opacity:1" />
    </g>
  </g>
  <g
     inkscape:groupmode="layer"
     id="layer3"
     inkscape:label="Head"
     style="opacity:0.996"
     transform="translate(-101.40664,-72.937638)">
    <g
       id="g1006"
       transform="matrix(1.0193144,0.12862212,-0.12622373,1.0265308,9.2600049,-17.501229)">
      <g
         id="Head"
         transform="matrix(-0.271251,0.07710062,0.07369008,0.28380507,117.49763,73.210801)"
         fill="#b28b67"
         style="fill-rule:evenodd;stroke:none;stroke-width:1">
        <path
           d="M 8.2622739,34.490127 C 3.6543643,29.081376 0.53563479,22.452877 1.0567763,15.025454 2.5583302,-6.3750206 32.348531,-1.6671889 38.143341,9.1339329 43.938152,19.935055 43.249578,47.332996 35.760301,49.263458 32.773588,50.033323 26.411001,48.147461 19.935372,44.244306 L 24,73 H 0 Z"
           id="path42" />
      </g>
      <path
         d="m 114.91597,80.913357 c 0.17315,-0.213597 0.40336,-0.378876 0.67658,-0.456537 0.74904,-0.212907 1.53771,0.313348 1.7247,1.033522 0.19454,0.74921 0.007,1.424616 -0.41227,1.807629 0.39489,0.454265 0.75363,0.763428 1.07548,0.746617 1.1401,-0.457295 1.8887,-3.943799 1.23871,-6.447107 -0.71144,-2.739994 -3.41017,-4.516206 -7.29394,-3.412278 -3.49075,0.992213 -4.4233,2.874357 -4.14562,4.225862 1.60754,0.005 4.26435,-0.572364 8.01366,-1.668308 l 0.0737,0.283805 -3.18132,1.209013 -0.10036,1.857031 c 0.84559,-0.312743 1.62319,0.131354 2.33069,0.820751 z"
         id="Combined-Shape"
         fill="#191847"
         style="fill-rule:evenodd;stroke:none;stroke-width:0.287513" />
    </g>
  </g>
  <g
     inkscape:label="Body"
     inkscape:groupmode="layer"
     id="layer1"
     transform="translate(-101.40664,-72.937638)">
    <path
       d="m 128.60245,121.10173 h -20.37292 c 4.71994,-11.47626 7.07991,-21.22521 7.07991,-29.246845 l 6.1455,-0.915652 c 4.82979,7.767745 6.19373,17.331407 7.14751,30.162497 z"
       id="Shirt"
       fill="#dde3e9"
       style="fill-rule:evenodd;stroke:none;stroke-width:0.264583" />
    <path
       d="m 121.58505,90.943577 c -7.9e-4,-0.0014 -0.002,-0.0029 -0.002,-0.0043 h -0.40115 c -0.48001,0.01653 -1.21114,0.04631 -2.19337,0.08934 l -1.48498,4.243706 c -0.15707,5.174067 -1.07438,15.601217 -2.75192,31.281447 h 13.35482 c -0.035,1.08297 -0.0927,2.17605 -0.17318,3.27925 h 9.92998 c -1.48535,-16.75766 -6.90966,-29.72224 -16.27293,-38.893746 l -0.005,0.0043 z"
       id="Coat-Front"
       fill="#2f3676"
       style="fill:#77b0b7;fill-opacity:1;fill-rule:evenodd;stroke:none;stroke-width:0.264583" />
    <path
       d="m 127.22391,112.69674 c -0.38008,6.75079 -1.33167,11.40454 -2.85479,13.96124 h 3.73351 c 0.16345,-4.85699 -0.12945,-9.51073 -0.87872,-13.96124 z"
       id="Shade"
       fill-opacity="0.1"
       fill="#000000"
       style="fill-rule:evenodd;stroke:none;stroke-width:0.264583" />
    <polygon
       id="Light"
       fill-opacity="0.2"
       fill="#ffffff"
       points="128,92.429272 128,104 103.1109,104 "
       style="fill-rule:evenodd;stroke:none;stroke-width:1"
       transform="matrix(-0.26458333,0,0,0.26458333,152.41495,90.939233)" />
  </g>
</svg>
